<?xml version="1.0" encoding="UTF-8" standalone="no"?>
<!DOCTYPE svg PUBLIC "-//W3C//DTD SVG 1.1//EN" "http://www.w3.org/Graphics/SVG/1.1/DTD/svg11.dtd">
<svg width="100%" height="100%" viewBox="0 0 1663 1505" version="1.1" xmlns="http://www.w3.org/2000/svg" xmlns:xlink="http://www.w3.org/1999/xlink" xml:space="preserve" xmlns:serif="http://www.serif.com/" style="fill-rule:evenodd;clip-rule:evenodd;stroke-linejoin:round;stroke-miterlimit:2;">
    <g transform="matrix(1,0,0,1,-888.488,-621.971)">
        <circle cx="1640.87" cy="1374.36" r="752.385" style="fill:rgb(46,134,230);"/>
    </g>
    <g transform="matrix(4.16667,0,0,4.16667,-549.077,-4674.78)">
        <g transform="matrix(1.36547,0,0,1.36547,-114.153,-394.38)">
            <path d="M429.209,1242.34C429.209,1258.71 415.94,1271.97 399.572,1271.97C394.768,1271.97 390.225,1270.83 386.212,1268.8C384.728,1268.05 383.321,1267.18 381.996,1266.2C374.681,1260.8 369.939,1252.13 369.939,1242.34C369.939,1225.97 383.208,1212.7 399.572,1212.7C411.502,1212.7 421.79,1219.76 426.486,1229.92C426.712,1230.41 426.925,1230.9 427.124,1231.41C428.472,1234.79 429.209,1238.48 429.209,1242.34Z" style="fill:rgb(230,231,232);fill-rule:nonzero;"/>
        </g>
        <g transform="matrix(1.36547,0,0,1.36547,-114.153,-394.38)">
            <path d="M403.338,1271.74C406.99,1266.12 409.575,1260.1 410.919,1253.81C411.625,1250.52 411.986,1247.16 411.986,1243.74C411.986,1241.46 411.824,1239.2 411.508,1236.98C414.18,1240.19 417.488,1242.56 421.429,1242.56C421.775,1242.56 422.126,1242.55 422.482,1242.51C427.459,1241.98 428.155,1237.15 427.124,1231.41C428.472,1234.79 429.209,1238.48 429.209,1242.34C429.209,1257.43 417.928,1269.89 403.338,1271.74Z" style="fill:rgb(207,209,211);fill-rule:nonzero;"/>
        </g>
        <g transform="matrix(1.36547,0,0,1.36547,-114.153,-394.38)">
            <path d="M195.491,1242.34C195.491,1258.71 208.76,1271.97 225.128,1271.97C229.933,1271.97 234.475,1270.83 238.488,1268.8C239.972,1268.05 241.379,1267.18 242.704,1266.2C250.019,1260.8 254.761,1252.13 254.761,1242.34C254.761,1225.97 241.492,1212.7 225.128,1212.7C213.198,1212.7 202.91,1219.76 198.214,1229.92C197.988,1230.41 197.775,1230.9 197.576,1231.41C196.228,1234.79 195.491,1238.48 195.491,1242.34Z" style="fill:rgb(230,231,232);fill-rule:nonzero;"/>
        </g>
        <g transform="matrix(1.36547,0,0,1.36547,-114.153,-394.38)">
            <path d="M221.363,1271.74C206.773,1269.89 195.491,1257.43 195.491,1242.34C195.491,1238.48 196.228,1234.79 197.576,1231.41C196.545,1237.15 197.242,1241.98 202.218,1242.51C202.574,1242.55 202.925,1242.56 203.27,1242.56C207.212,1242.56 210.52,1240.19 213.192,1236.98C212.876,1239.2 212.714,1241.46 212.714,1243.74C212.714,1247.17 213.076,1250.53 213.786,1253.82C215.13,1260.11 217.715,1266.12 221.363,1271.74Z" style="fill:rgb(207,209,211);fill-rule:nonzero;"/>
        </g>
        <g transform="matrix(1.36547,0,0,1.36547,-114.153,-394.38)">
            <path d="M356.878,1190.73C356.878,1197.59 353.381,1203.9 347.509,1208.92C339.361,1215.89 326.644,1220.37 312.348,1220.37C301.544,1220.37 291.641,1217.81 283.932,1213.55C274.088,1208.12 267.817,1199.91 267.817,1190.73C267.817,1183.19 272.052,1176.31 279.024,1171.08C287.18,1164.96 299.088,1161.1 312.348,1161.1C326.196,1161.1 338.569,1165.3 346.735,1171.9C353.073,1177.02 356.878,1183.58 356.878,1190.73Z" style="fill:rgb(230,231,232);fill-rule:nonzero;"/>
        </g>
        <g transform="matrix(1.36547,0,0,1.36547,-114.153,-394.38)">
            <path d="M269.948,1181.65C271.858,1177.7 274.98,1174.11 279.024,1171.08C286.662,1169.32 297.878,1167.48 311.316,1167.48C321.953,1167.48 333.982,1168.63 346.735,1171.9C350.266,1174.75 353.01,1178.05 354.749,1181.65C341.882,1177.48 327.513,1175.15 312.348,1175.15C297.184,1175.15 282.814,1177.48 269.948,1181.65Z" style="fill:rgb(207,209,211);fill-rule:nonzero;"/>
        </g>
        <g transform="matrix(1.36547,0,0,1.36547,-114.153,-394.38)">
            <path d="M358.086,1306.05L356.735,1305.41L358.086,1306.05Z" style="fill:rgb(14,86,185);fill-rule:nonzero;"/>
        </g>
        <g transform="matrix(1.36547,0,0,1.36547,-114.153,-394.38)">
            <path d="M356.735,1305.41L356.457,1305.27L356.735,1305.41Z" style="fill:rgb(14,86,185);fill-rule:nonzero;"/>
        </g>
        <g transform="matrix(1.36547,0,0,1.36547,-114.153,-394.38)">
            <path d="M411.986,1243.74C411.986,1247.16 411.625,1250.52 410.919,1253.81C403.852,1286.92 362.416,1312.34 312.348,1312.34C262.293,1312.34 220.857,1286.93 213.786,1253.82C213.076,1250.53 212.714,1247.17 212.714,1243.74C212.714,1205.86 257.321,1175.15 312.348,1175.15C367.379,1175.15 411.986,1205.86 411.986,1243.74Z" style="fill:white;fill-rule:nonzero;"/>
        </g>
        <g transform="matrix(1.36547,0,0,1.36547,-114.153,-394.38)">
            <path d="M394.387,1243.74C394.387,1246.56 394.089,1249.32 393.508,1252.03C387.689,1279.29 353.572,1300.23 312.348,1300.23C271.135,1300.23 237.018,1279.3 231.196,1252.04C230.611,1249.33 230.313,1246.56 230.313,1243.74C230.313,1212.55 267.042,1187.27 312.348,1187.27C357.659,1187.27 394.387,1212.55 394.387,1243.74Z" style="fill:rgb(25,48,59);fill-rule:nonzero;"/>
        </g>
        <g transform="matrix(1.36547,0,0,1.36547,-114.153,-394.38)">
            <path d="M312.348,1192.99C356.227,1192.99 392.057,1216.7 394.277,1246.53C394.342,1245.6 394.387,1244.68 394.387,1243.74C394.387,1212.55 357.659,1187.27 312.348,1187.27C267.041,1187.27 230.313,1212.55 230.313,1243.74C230.313,1244.68 230.358,1245.61 230.423,1246.53C232.642,1216.7 268.472,1192.99 312.348,1192.99Z" style="fill:rgb(13,29,36);fill-rule:nonzero;"/>
        </g>
        <g transform="matrix(1.36547,0,0,1.36547,-114.153,-394.38)">
            <path d="M312.348,1312.34C262.293,1312.34 220.857,1286.93 213.786,1253.82C223.603,1270.06 242.698,1283.28 266.84,1290.75C279.863,1296.73 295.512,1300.23 312.348,1300.23C329.186,1300.23 344.839,1296.73 357.862,1290.74C382.011,1283.28 401.104,1270.05 410.919,1253.81C407.971,1267.62 399.043,1280.09 386.004,1289.94C385.073,1290.65 384.121,1291.34 383.149,1292.01C365.093,1304.57 340.04,1312.34 312.348,1312.34Z" style="fill:rgb(230,231,232);fill-rule:nonzero;"/>
        </g>
        <g transform="matrix(1.36547,0,0,1.36547,-114.153,-394.38)">
            <path d="M312.348,1300.23C295.512,1300.23 279.863,1296.73 266.84,1290.75C280.626,1295.01 296.057,1297.39 312.348,1297.39C328.641,1297.39 344.076,1295.01 357.862,1290.74C344.839,1296.73 329.186,1300.23 312.348,1300.23Z" style="fill:rgb(22,44,54);fill-rule:nonzero;"/>
        </g>
        <g transform="matrix(1.36547,0,0,1.36547,-114.153,-394.38)">
            <path d="M358.686,1239.76C358.686,1248.43 354.193,1255.46 348.652,1255.46C343.111,1255.46 338.619,1248.43 338.619,1239.76C338.619,1231.09 343.111,1224.05 348.652,1224.05C354.193,1224.05 358.686,1231.09 358.686,1239.76Z" style="fill:rgb(253,188,0);fill-rule:nonzero;"/>
        </g>
        <g transform="matrix(1.36547,0,0,1.36547,-114.153,-394.38)">
            <path d="M286.081,1239.76C286.081,1248.43 281.589,1255.46 276.048,1255.46C270.507,1255.46 266.015,1248.43 266.015,1239.76C266.015,1231.09 270.507,1224.05 276.048,1224.05C281.589,1224.05 286.081,1231.09 286.081,1239.76Z" style="fill:rgb(253,188,0);fill-rule:nonzero;"/>
        </g>
        <g transform="matrix(1.36547,0,0,1.36547,-114.153,-394.38)">
            <path d="M312.35,1279.86C303.636,1279.86 295.434,1276.47 289.253,1270.3C288.767,1269.82 288.766,1269.03 289.251,1268.54C289.737,1268.06 290.524,1268.06 291.011,1268.54C296.721,1274.24 304.3,1277.38 312.35,1277.38C320.4,1277.38 327.979,1274.24 333.689,1268.54C334.176,1268.06 334.963,1268.06 335.449,1268.54C335.934,1269.03 335.933,1269.82 335.447,1270.3C329.266,1276.47 321.064,1279.86 312.35,1279.86Z" style="fill:rgb(253,188,0);fill-rule:nonzero;"/>
        </g>
    </g>
</svg>
