<?xml version="1.0" encoding="UTF-8" standalone="no"?>
<!DOCTYPE svg PUBLIC "-//W3C//DTD SVG 1.1//EN" "http://www.w3.org/Graphics/SVG/1.1/DTD/svg11.dtd">
<svg width="100%" height="100%" viewBox="0 0 1663 1505" version="1.1" xmlns="http://www.w3.org/2000/svg" xmlns:xlink="http://www.w3.org/1999/xlink" xml:space="preserve" xmlns:serif="http://www.serif.com/" style="fill-rule:evenodd;clip-rule:evenodd;stroke-linejoin:round;stroke-miterlimit:2;">
    <g transform="matrix(1,0,0,1,-888.488,-621.971)">
        <circle cx="1640.87" cy="1374.36" r="752.385" style="fill:rgb(46,134,230);"/>
    </g>
    <g transform="matrix(4.16667,0,0,4.16667,-549.077,-4674.78)">
        <path d="M429.209,1242.34C429.209,1258.71 415.94,1271.97 399.572,1271.97C394.768,1271.97 390.225,1270.83 386.212,1268.8C384.728,1268.05 383.321,1267.18 381.996,1266.2C374.681,1260.8 369.939,1252.13 369.939,1242.34C369.939,1225.97 383.208,1212.7 399.572,1212.7C411.502,1212.7 421.79,1219.76 426.486,1229.92C426.712,1230.41 426.925,1230.9 427.124,1231.41C428.472,1234.79 429.209,1238.48 429.209,1242.34Z" style="fill:rgb(230,231,232);fill-rule:nonzero;"/>
        <path d="M403.338,1271.74C406.99,1266.12 409.575,1260.1 410.919,1253.81C411.625,1250.52 411.986,1247.16 411.986,1243.74C411.986,1241.46 411.824,1239.2 411.508,1236.98C414.18,1240.19 417.488,1242.56 421.429,1242.56C421.775,1242.56 422.126,1242.55 422.482,1242.51C427.459,1241.98 428.155,1237.15 427.124,1231.41C428.472,1234.79 429.209,1238.48 429.209,1242.34C429.209,1257.43 417.928,1269.89 403.338,1271.74Z" style="fill:rgb(207,209,211);fill-rule:nonzero;"/>
        <path d="M195.491,1242.34C195.491,1258.71 208.76,1271.97 225.128,1271.97C229.933,1271.97 234.475,1270.83 238.488,1268.8C239.972,1268.05 241.379,1267.18 242.704,1266.2C250.019,1260.8 254.761,1252.13 254.761,1242.34C254.761,1225.97 241.492,1212.7 225.128,1212.7C213.198,1212.7 202.91,1219.76 198.214,1229.92C197.988,1230.41 197.775,1230.9 197.576,1231.41C196.228,1234.79 195.491,1238.48 195.491,1242.34Z" style="fill:rgb(230,231,232);fill-rule:nonzero;"/>
        <path d="M221.363,1271.74C206.773,1269.89 195.491,1257.43 195.491,1242.34C195.491,1238.48 196.228,1234.79 197.576,1231.41C196.545,1237.15 197.242,1241.98 202.218,1242.51C202.574,1242.55 202.925,1242.56 203.27,1242.56C207.212,1242.56 210.52,1240.19 213.192,1236.98C212.876,1239.2 212.714,1241.46 212.714,1243.74C212.714,1247.17 213.076,1250.53 213.786,1253.82C215.13,1260.11 217.715,1266.12 221.363,1271.74Z" style="fill:rgb(207,209,211);fill-rule:nonzero;"/>
        <path d="M356.878,1190.73C356.878,1197.59 353.381,1203.9 347.509,1208.92C339.361,1215.89 326.644,1220.37 312.348,1220.37C301.544,1220.37 291.641,1217.81 283.932,1213.55C274.088,1208.12 267.817,1199.91 267.817,1190.73C267.817,1183.19 272.052,1176.31 279.024,1171.08C287.18,1164.96 299.088,1161.1 312.348,1161.1C326.196,1161.1 338.569,1165.3 346.735,1171.9C353.073,1177.02 356.878,1183.58 356.878,1190.73Z" style="fill:rgb(230,231,232);fill-rule:nonzero;"/>
        <path d="M269.948,1181.65C271.858,1177.7 274.98,1174.11 279.024,1171.08C286.662,1169.32 297.878,1167.48 311.316,1167.48C321.953,1167.48 333.982,1168.63 346.735,1171.9C350.266,1174.75 353.01,1178.05 354.749,1181.65C341.882,1177.48 327.513,1175.15 312.348,1175.15C297.184,1175.15 282.814,1177.48 269.948,1181.65Z" style="fill:rgb(207,209,211);fill-rule:nonzero;"/>
        <path d="M387.289,1348.74C385.783,1359.61 383.222,1372.56 378.861,1385.49C374.459,1398.54 368.225,1411.57 359.394,1422.39C354.232,1428.71 347.219,1433.76 339.126,1437.25C331.028,1440.73 321.848,1442.64 312.348,1442.64C293.351,1442.64 275.626,1435.02 265.302,1422.39C256.466,1411.56 250.227,1398.53 245.826,1385.46C241.474,1372.54 238.913,1359.6 237.411,1348.74C235.14,1332.32 245.129,1316.36 262.954,1307.81L295.048,1292.41L329.652,1292.41L361.746,1307.81C379.571,1316.36 389.561,1332.32 387.289,1348.74Z" style="fill:white;fill-rule:nonzero;"/>
        <path d="M358.086,1306.05L356.735,1305.41L358.086,1306.05Z" style="fill:rgb(14,86,185);fill-rule:nonzero;"/>
        <path d="M356.735,1305.41L356.457,1305.27L356.735,1305.41Z" style="fill:rgb(14,86,185);fill-rule:nonzero;"/>
        <path d="M312.348,1318.44C293.635,1318.44 276.128,1314.88 261.169,1308.71C261.756,1308.4 262.35,1308.1 262.954,1307.81L268.244,1305.27C281.538,1309.8 296.513,1312.34 312.348,1312.34C328.187,1312.34 343.16,1309.8 356.457,1305.27L356.735,1305.41L358.086,1306.05L361.746,1307.81C361.781,1307.83 361.817,1307.84 361.852,1307.86C361.864,1307.87 361.876,1307.87 361.888,1307.88C362.444,1308.15 362.991,1308.42 363.531,1308.71C348.572,1314.88 331.064,1318.44 312.348,1318.44Z" style="fill:rgb(216,217,218);fill-rule:nonzero;"/>
        <path d="M312.348,1442.64C293.351,1442.64 275.626,1435.02 265.302,1422.39C256.466,1411.56 250.227,1398.53 245.826,1385.46C248.802,1389.68 252.118,1393.71 255.815,1397.48C268.22,1410.12 289.519,1417.73 312.348,1417.73C323.762,1417.73 334.797,1415.82 344.523,1412.34C354.254,1408.86 362.682,1403.8 368.885,1397.48C372.577,1393.72 375.889,1389.69 378.861,1385.49C377.366,1389.92 375.661,1394.35 373.715,1398.69C373.405,1399.38 373.088,1400.07 372.766,1400.76C369.15,1408.46 364.749,1415.83 359.394,1422.39C358.234,1423.81 356.98,1425.16 355.642,1426.45C354.905,1427.16 354.142,1427.85 353.355,1428.52C349.213,1432.04 344.399,1434.98 339.126,1437.25C331.028,1440.73 321.848,1442.64 312.348,1442.64Z" style="fill:rgb(230,231,232);fill-rule:nonzero;"/>
        <path d="M411.986,1243.74C411.986,1247.16 411.625,1250.52 410.919,1253.81C403.852,1286.92 362.416,1312.34 312.348,1312.34C262.293,1312.34 220.857,1286.93 213.786,1253.82C213.076,1250.53 212.714,1247.17 212.714,1243.74C212.714,1205.86 257.321,1175.15 312.348,1175.15C367.379,1175.15 411.986,1205.86 411.986,1243.74Z" style="fill:white;fill-rule:nonzero;"/>
        <path d="M394.387,1243.74C394.387,1246.56 394.089,1249.32 393.508,1252.03C387.689,1279.29 353.572,1300.23 312.348,1300.23C271.135,1300.23 237.018,1279.3 231.196,1252.04C230.611,1249.33 230.313,1246.56 230.313,1243.74C230.313,1212.55 267.042,1187.27 312.348,1187.27C357.659,1187.27 394.387,1212.55 394.387,1243.74Z" style="fill:rgb(25,48,59);fill-rule:nonzero;"/>
        <path d="M312.348,1192.99C356.227,1192.99 392.057,1216.7 394.277,1246.53C394.342,1245.6 394.387,1244.68 394.387,1243.74C394.387,1212.55 357.659,1187.27 312.348,1187.27C267.041,1187.27 230.313,1212.55 230.313,1243.74C230.313,1244.68 230.358,1245.61 230.423,1246.53C232.642,1216.7 268.472,1192.99 312.348,1192.99Z" style="fill:rgb(13,29,36);fill-rule:nonzero;"/>
        <path d="M312.348,1312.34C262.293,1312.34 220.857,1286.93 213.786,1253.82C223.603,1270.06 242.698,1283.28 266.84,1290.75C279.863,1296.73 295.512,1300.23 312.348,1300.23C329.186,1300.23 344.839,1296.73 357.862,1290.74C382.011,1283.28 401.104,1270.05 410.919,1253.81C407.971,1267.62 399.043,1280.09 386.004,1289.94C385.073,1290.65 384.121,1291.34 383.149,1292.01C365.093,1304.57 340.04,1312.34 312.348,1312.34Z" style="fill:rgb(230,231,232);fill-rule:nonzero;"/>
        <path d="M312.348,1300.23C295.512,1300.23 279.863,1296.73 266.84,1290.75C280.626,1295.01 296.057,1297.39 312.348,1297.39C328.641,1297.39 344.076,1295.01 357.862,1290.74C344.839,1296.73 329.186,1300.23 312.348,1300.23Z" style="fill:rgb(22,44,54);fill-rule:nonzero;"/>
        <path d="M358.686,1239.76C358.686,1248.43 354.193,1255.46 348.652,1255.46C343.111,1255.46 338.619,1248.43 338.619,1239.76C338.619,1231.09 343.111,1224.05 348.652,1224.05C354.193,1224.05 358.686,1231.09 358.686,1239.76Z" style="fill:rgb(253,188,0);fill-rule:nonzero;"/>
        <path d="M286.081,1239.76C286.081,1248.43 281.589,1255.46 276.048,1255.46C270.507,1255.46 266.015,1248.43 266.015,1239.76C266.015,1231.09 270.507,1224.05 276.048,1224.05C281.589,1224.05 286.081,1231.09 286.081,1239.76Z" style="fill:rgb(253,188,0);fill-rule:nonzero;"/>
        <path d="M312.35,1279.86C303.636,1279.86 295.434,1276.47 289.253,1270.3C288.767,1269.82 288.766,1269.03 289.251,1268.54C289.737,1268.06 290.524,1268.06 291.011,1268.54C296.721,1274.24 304.3,1277.38 312.35,1277.38C320.4,1277.38 327.979,1274.24 333.689,1268.54C334.176,1268.06 334.963,1268.06 335.449,1268.54C335.934,1269.03 335.933,1269.82 335.447,1270.3C329.266,1276.47 321.064,1279.86 312.35,1279.86Z" style="fill:rgb(253,188,0);fill-rule:nonzero;"/>
        <path d="M420.246,1350.18C407.529,1350.18 394.674,1346.38 381.625,1342.04L388.415,1321.64C404.903,1327.13 419.564,1331.3 432.002,1326.68C441.906,1323 449.295,1313.06 449.971,1302.52L471.426,1303.89C470.207,1322.93 457.372,1340.18 439.489,1346.83C433.106,1349.2 426.693,1350.18 420.246,1350.18Z" style="fill:rgb(230,231,232);fill-rule:nonzero;"/>
        <path d="M470.25,1311.71L449.333,1306.74C449.442,1306.28 449.539,1305.82 449.624,1305.35L470.778,1309.19C470.625,1310.03 470.448,1310.88 470.25,1311.71ZM465.715,1323.62L446.763,1313.47C446.994,1313.04 447.213,1312.61 447.421,1312.17L466.857,1321.36C466.495,1322.12 466.114,1322.88 465.715,1323.62ZM458.417,1333.94L442.537,1319.44C442.865,1319.08 443.185,1318.71 443.496,1318.34L460.08,1332.02C459.541,1332.67 458.987,1333.31 458.417,1333.94ZM448.742,1342.17L437.023,1324.14C437.428,1323.88 437.825,1323.6 438.214,1323.32L450.846,1340.72C450.157,1341.22 449.455,1341.7 448.742,1342.17ZM383.556,1342.68L381.623,1342.04L388.417,1321.64L390.28,1322.26L383.556,1342.68ZM393.504,1345.78C392.825,1345.58 392.149,1345.39 391.473,1345.18L397.618,1324.58C398.219,1324.76 398.821,1324.94 399.425,1325.11L393.504,1345.78ZM437.093,1347.65L431.468,1329.78L430.122,1327.59L431.464,1329.77L430.636,1327.14C431.091,1327 431.545,1326.85 431.997,1326.68L432.793,1326.42L435.735,1336.72L441.389,1345.9L439.467,1346.75L439.495,1346.83C438.698,1347.12 437.897,1347.4 437.093,1347.65ZM404.04,1348.39C403.317,1348.24 402.594,1348.09 401.871,1347.93L406.554,1326.95C407.135,1327.08 407.717,1327.2 408.299,1327.32L404.04,1348.39ZM415.327,1349.97C414.549,1349.91 413.77,1349.85 412.991,1349.77L415.159,1328.38C415.709,1328.43 416.259,1328.48 416.809,1328.52L415.327,1349.97ZM424.863,1349.97L423.258,1328.53C423.765,1328.49 424.271,1328.44 424.775,1328.38L427.327,1349.73C426.507,1349.83 425.686,1349.91 424.863,1349.97Z" style="fill:rgb(171,177,181);fill-rule:nonzero;"/>
        <path d="M467.28,1299.97C466.412,1299.97 465.54,1299.67 464.836,1299.05C463.297,1297.7 463.144,1295.36 464.494,1293.82C470.097,1287.43 475.149,1280.49 479.511,1273.2C480.561,1271.44 482.838,1270.87 484.595,1271.92C486.353,1272.97 486.926,1275.25 485.875,1277C481.284,1284.68 475.966,1291.99 470.068,1298.71C469.335,1299.55 468.31,1299.97 467.28,1299.97Z" style="fill:rgb(230,231,232);fill-rule:nonzero;"/>
        <path d="M484.998,1278.45L478.68,1274.57C478.96,1274.11 479.236,1273.66 479.51,1273.2L485.876,1277C485.586,1277.49 485.294,1277.97 484.998,1278.45ZM480.378,1285.52L474.289,1281.29C474.594,1280.85 474.896,1280.41 475.196,1279.97L481.336,1284.13C481.02,1284.59 480.7,1285.06 480.378,1285.52ZM475.363,1292.32L469.524,1287.75C469.854,1287.33 470.181,1286.91 470.506,1286.48L476.398,1290.98C476.055,1291.43 475.711,1291.88 475.363,1292.32ZM470.067,1298.71L464.495,1293.82C464.816,1293.45 465.134,1293.09 465.451,1292.72L471.079,1297.55C470.744,1297.94 470.407,1298.33 470.067,1298.71Z" style="fill:rgb(171,177,181);fill-rule:nonzero;"/>
        <path d="M469.555,1305.9C468.225,1305.9 466.938,1305.18 466.274,1303.92C465.318,1302.11 466.01,1299.87 467.821,1298.91C475.516,1294.85 482.459,1289.59 488.457,1283.29C489.869,1281.8 492.215,1281.75 493.698,1283.16C495.182,1284.57 495.24,1286.92 493.829,1288.4C487.276,1295.29 479.69,1301.03 471.283,1305.47C470.731,1305.76 470.139,1305.9 469.555,1305.9Z" style="fill:rgb(230,231,232);fill-rule:nonzero;"/>
        <path d="M492.627,1289.64L487.363,1284.41C487.732,1284.04 488.097,1283.67 488.459,1283.29L493.827,1288.4C493.431,1288.82 493.031,1289.23 492.627,1289.64ZM486.286,1295.44L481.554,1289.73C481.959,1289.4 482.36,1289.06 482.758,1288.71L487.598,1294.33C487.164,1294.7 486.727,1295.07 486.286,1295.44ZM479.406,1300.6L475.254,1294.45C475.689,1294.16 476.121,1293.86 476.55,1293.56L480.822,1299.62C480.353,1299.95 479.881,1300.28 479.406,1300.6ZM472.058,1305.05L468.518,1298.54C468.983,1298.29 469.444,1298.03 469.903,1297.77L473.557,1304.22C473.06,1304.5 472.561,1304.78 472.058,1305.05Z" style="fill:rgb(171,177,181);fill-rule:nonzero;"/>
        <path d="M459.654,1302.73C459.447,1302.73 459.237,1302.71 459.026,1302.67C457.008,1302.33 455.65,1300.41 455.995,1298.4C457.787,1287.89 461.314,1277.84 466.478,1268.52C467.47,1266.73 469.727,1266.08 471.518,1267.07C473.309,1268.07 473.956,1270.32 472.964,1272.11C468.205,1280.7 464.955,1289.96 463.304,1299.64C462.996,1301.45 461.428,1302.73 459.654,1302.73Z" style="fill:rgb(230,231,232);fill-rule:nonzero;"/>
        <path d="M470.408,1277.1L463.703,1273.94C463.947,1273.42 464.196,1272.9 464.45,1272.39L471.096,1275.68C470.863,1276.15 470.633,1276.62 470.408,1277.1ZM467.361,1284.39L460.398,1281.84C460.594,1281.31 460.794,1280.77 461,1280.24L467.919,1282.91C467.729,1283.4 467.543,1283.89 467.361,1284.39ZM464.986,1291.92L457.821,1290.02C457.968,1289.47 458.12,1288.92 458.277,1288.36L465.407,1290.4C465.262,1290.91 465.122,1291.42 464.986,1291.92ZM463.304,1299.64L455.995,1298.4C456.091,1297.83 456.192,1297.27 456.299,1296.71L463.584,1298.09C463.486,1298.61 463.393,1299.12 463.304,1299.64Z" style="fill:rgb(171,177,181);fill-rule:nonzero;"/>
        <path d="M444.953,1297.5C441.935,1305.11 447.407,1314.42 457.175,1318.29C466.943,1322.17 477.309,1319.13 480.327,1311.52C483.345,1303.91 477.873,1294.6 468.105,1290.72C458.337,1286.85 447.971,1289.88 444.953,1297.5Z" style="fill:white;fill-rule:nonzero;"/>
        <path d="M480.104,1312.05C480.182,1311.87 480.256,1311.7 480.327,1311.52C480.333,1311.51 480.338,1311.49 480.344,1311.48C480.338,1311.49 480.333,1311.51 480.327,1311.52C480.256,1311.7 480.182,1311.87 480.104,1312.05Z" style="fill:rgb(12,92,197);fill-rule:nonzero;"/>
        <path d="M463.741,1319.88C461.582,1319.68 459.363,1319.16 457.175,1318.29C459.363,1319.16 461.582,1319.68 463.741,1319.88ZM457.101,1318.26C457.092,1318.26 457.084,1318.26 457.075,1318.25C457.084,1318.26 457.092,1318.26 457.101,1318.26ZM457.015,1318.23C457.005,1318.22 456.994,1318.22 456.984,1318.22C456.995,1318.22 457.004,1318.22 457.015,1318.23ZM456.933,1318.2C456.922,1318.19 456.91,1318.19 456.899,1318.18C456.911,1318.19 456.921,1318.19 456.933,1318.2ZM456.857,1318.16C456.838,1318.16 456.818,1318.15 456.799,1318.14C456.818,1318.15 456.838,1318.16 456.857,1318.16ZM456.767,1318.13C456.753,1318.12 456.739,1318.12 456.725,1318.11C456.739,1318.12 456.753,1318.12 456.767,1318.13ZM456.7,1318.1C456.673,1318.09 456.645,1318.08 456.618,1318.06C456.645,1318.08 456.673,1318.09 456.7,1318.1ZM456.602,1318.06C456.548,1318.03 456.494,1318.01 456.44,1317.99C456.494,1318.01 456.548,1318.03 456.602,1318.06ZM456.438,1317.99C455.619,1317.63 454.833,1317.24 454.081,1316.81C454.833,1317.24 455.619,1317.63 456.438,1317.99ZM454.077,1316.81C454.06,1316.8 454.044,1316.79 454.028,1316.78C454.044,1316.79 454.061,1316.8 454.077,1316.81ZM454.022,1316.78C453.994,1316.76 453.965,1316.74 453.937,1316.73C453.965,1316.74 453.994,1316.76 454.022,1316.78ZM453.919,1316.72C453.905,1316.71 453.892,1316.7 453.878,1316.69C453.892,1316.7 453.905,1316.71 453.919,1316.72ZM453.849,1316.68C453.831,1316.66 453.813,1316.65 453.795,1316.64C453.813,1316.65 453.831,1316.66 453.849,1316.68ZM453.761,1316.62C453.75,1316.62 453.74,1316.61 453.729,1316.6C453.74,1316.61 453.75,1316.62 453.761,1316.62ZM453.678,1316.57C453.669,1316.57 453.659,1316.56 453.65,1316.56C453.659,1316.56 453.669,1316.57 453.678,1316.57ZM453.603,1316.53C453.596,1316.52 453.589,1316.52 453.582,1316.52C453.589,1316.52 453.596,1316.52 453.603,1316.53ZM453.515,1316.48C453.514,1316.48 453.513,1316.47 453.512,1316.47C453.513,1316.47 453.514,1316.48 453.515,1316.48ZM453.444,1316.43L453.435,1316.43L453.444,1316.43Z" style="fill:rgb(154,160,166);fill-rule:nonzero;"/>
        <path d="M480.35,1311.46C480.354,1311.45 480.357,1311.44 480.361,1311.43C480.357,1311.44 480.354,1311.45 480.35,1311.46ZM480.367,1311.42C480.371,1311.41 480.374,1311.4 480.377,1311.39C480.374,1311.4 480.371,1311.41 480.367,1311.42ZM480.383,1311.38C480.387,1311.37 480.39,1311.36 480.394,1311.35C480.39,1311.36 480.387,1311.37 480.383,1311.38ZM480.4,1311.33C480.404,1311.32 480.407,1311.31 480.41,1311.3C480.407,1311.31 480.404,1311.32 480.4,1311.33ZM480.416,1311.29C480.42,1311.28 480.423,1311.27 480.427,1311.26C480.423,1311.27 480.42,1311.28 480.416,1311.29ZM480.433,1311.24C480.436,1311.23 480.439,1311.23 480.442,1311.22C480.439,1311.23 480.436,1311.23 480.433,1311.24ZM480.448,1311.2C480.451,1311.19 480.454,1311.18 480.458,1311.17C480.455,1311.18 480.451,1311.19 480.448,1311.2ZM480.465,1311.15C480.467,1311.15 480.47,1311.14 480.472,1311.13C480.47,1311.14 480.467,1311.15 480.465,1311.15ZM480.48,1311.11C480.483,1311.1 480.485,1311.1 480.488,1311.09C480.485,1311.1 480.483,1311.1 480.48,1311.11ZM480.495,1311.07C480.497,1311.06 480.499,1311.06 480.502,1311.05C480.499,1311.06 480.497,1311.06 480.495,1311.07Z" style="fill:rgb(12,92,197);fill-rule:nonzero;"/>
        <path d="M465.773,1319.98C465.104,1319.98 464.425,1319.95 463.741,1319.88C461.582,1319.68 459.363,1319.16 457.175,1318.29C457.15,1318.28 457.126,1318.27 457.101,1318.26C457.092,1318.26 457.084,1318.26 457.075,1318.25C457.055,1318.25 457.035,1318.24 457.015,1318.23C457.004,1318.22 456.995,1318.22 456.984,1318.22C456.967,1318.21 456.95,1318.2 456.933,1318.2C456.921,1318.19 456.911,1318.19 456.899,1318.18C456.885,1318.18 456.871,1318.17 456.857,1318.16C456.838,1318.16 456.818,1318.15 456.799,1318.14C456.788,1318.14 456.778,1318.13 456.767,1318.13C456.753,1318.12 456.739,1318.12 456.725,1318.11C456.717,1318.11 456.709,1318.1 456.7,1318.1C456.673,1318.09 456.645,1318.08 456.618,1318.06L456.602,1318.06C456.548,1318.03 456.494,1318.01 456.44,1317.99L456.438,1317.99C455.619,1317.63 454.833,1317.24 454.081,1316.81L454.077,1316.81C454.061,1316.8 454.044,1316.79 454.028,1316.78L454.022,1316.78C453.994,1316.76 453.965,1316.74 453.937,1316.73C453.931,1316.72 453.925,1316.72 453.919,1316.72C453.905,1316.71 453.892,1316.7 453.878,1316.69C453.869,1316.69 453.859,1316.68 453.849,1316.68C453.831,1316.66 453.813,1316.65 453.795,1316.64C453.784,1316.64 453.772,1316.63 453.761,1316.62C453.75,1316.62 453.74,1316.61 453.729,1316.6C453.712,1316.59 453.695,1316.58 453.678,1316.57C453.669,1316.57 453.659,1316.56 453.65,1316.56C453.634,1316.55 453.618,1316.54 453.603,1316.53C453.596,1316.52 453.589,1316.52 453.582,1316.52C453.559,1316.5 453.537,1316.49 453.515,1316.48C453.514,1316.48 453.513,1316.47 453.512,1316.47C453.489,1316.46 453.467,1316.45 453.444,1316.43L453.435,1316.43C448.147,1313.19 444.736,1308.22 444.201,1303.25C446.308,1307.39 450.329,1311.08 455.61,1313.17C458.492,1314.31 461.426,1314.85 464.209,1314.85C470.855,1314.85 476.634,1311.76 478.761,1306.4C479.495,1304.55 479.723,1302.59 479.514,1300.64C481.192,1303.95 481.657,1307.54 480.566,1310.86C480.545,1310.92 480.523,1310.99 480.502,1311.05C480.499,1311.06 480.497,1311.06 480.495,1311.07C480.493,1311.08 480.49,1311.08 480.488,1311.09C480.485,1311.1 480.483,1311.1 480.48,1311.11C480.478,1311.12 480.475,1311.13 480.472,1311.13C480.47,1311.14 480.467,1311.15 480.465,1311.15C480.462,1311.16 480.46,1311.17 480.458,1311.17C480.454,1311.18 480.451,1311.19 480.448,1311.2C480.446,1311.21 480.444,1311.21 480.442,1311.22C480.439,1311.23 480.436,1311.23 480.433,1311.24C480.431,1311.25 480.429,1311.25 480.427,1311.26C480.423,1311.27 480.42,1311.28 480.416,1311.29C480.414,1311.29 480.412,1311.3 480.41,1311.3C480.407,1311.31 480.404,1311.32 480.4,1311.33C480.398,1311.34 480.396,1311.34 480.394,1311.35C480.39,1311.36 480.387,1311.37 480.383,1311.38C480.381,1311.38 480.379,1311.39 480.377,1311.39C480.374,1311.4 480.371,1311.41 480.367,1311.42C480.365,1311.42 480.363,1311.43 480.361,1311.43C480.357,1311.44 480.354,1311.45 480.35,1311.46C480.348,1311.47 480.346,1311.47 480.344,1311.48C480.338,1311.49 480.333,1311.51 480.327,1311.52C480.256,1311.7 480.182,1311.87 480.104,1312.05C477.815,1317.09 472.2,1319.98 465.773,1319.98Z" style="fill:rgb(230,231,232);fill-rule:nonzero;"/>
        <path d="M450.459,1301.47C450.364,1301.47 450.269,1301.46 450.174,1301.46C448.903,1301.36 447.689,1300.64 446.926,1299.52C443.336,1294.24 440.469,1288.5 438.408,1282.46C438.204,1281.86 437.971,1281.16 437.776,1280.41C437.261,1278.42 438.45,1276.4 440.431,1275.89C442.414,1275.37 444.437,1276.56 444.952,1278.54C445.086,1279.05 445.259,1279.58 445.426,1280.07C447.16,1285.15 449.531,1290 452.478,1294.48C452.701,1294.61 452.914,1294.77 453.113,1294.95C454.626,1296.33 454.733,1298.67 453.354,1300.18C452.603,1301.01 451.561,1301.47 450.459,1301.47Z" style="fill:rgb(230,231,232);fill-rule:nonzero;"/>
        <path d="M438.331,1282.23C438.09,1281.52 437.919,1280.96 437.776,1280.41L444.952,1278.54C445.069,1278.99 445.21,1279.43 445.357,1279.86L438.331,1282.23ZM441.607,1290.28C441.356,1289.76 441.111,1289.23 440.873,1288.7L447.634,1285.66C447.847,1286.13 448.066,1286.6 448.291,1287.07L441.607,1290.28ZM445.836,1297.87C445.523,1297.38 445.217,1296.89 444.917,1296.39L451.256,1292.55C451.526,1292.99 451.8,1293.43 452.081,1293.87L445.836,1297.87Z" style="fill:rgb(171,177,181);fill-rule:nonzero;"/>
        <path d="M399.12,1336.63C399.12,1345.8 393.844,1353.74 386.158,1357.57C386.032,1357.64 385.905,1357.7 385.778,1357.76C383.137,1355.13 380.919,1352.5 379.064,1349.9C367.22,1333.31 370.184,1318.18 371.487,1313.62C371.767,1313.57 372.048,1313.52 372.333,1313.49C373.441,1313.32 374.577,1313.24 375.731,1313.24C382.955,1313.24 389.411,1316.51 393.705,1321.66C397.084,1325.71 399.12,1330.93 399.12,1336.63Z" style="fill:white;fill-rule:nonzero;"/>
        <path d="M385.867,1357.72C385.964,1357.67 386.061,1357.62 386.158,1357.57C387.332,1356.98 388.45,1356.3 389.501,1355.54L389.502,1355.54C388.45,1356.3 387.332,1356.98 386.158,1357.57C386.061,1357.62 385.964,1357.67 385.867,1357.72ZM391.965,1353.47C393.974,1351.53 395.637,1349.24 396.853,1346.69C395.637,1349.24 393.974,1351.53 391.965,1353.47Z" style="fill:rgb(41,122,209);fill-rule:nonzero;"/>
        <path d="M389.502,1355.54L389.501,1355.54C390.37,1354.9 391.193,1354.21 391.965,1353.47C391.193,1354.21 390.37,1354.9 389.502,1355.54Z" style="fill:rgb(12,92,197);fill-rule:nonzero;"/>
        <path d="M385.778,1357.76C385.634,1357.61 385.491,1357.47 385.349,1357.33C385.491,1357.47 385.634,1357.61 385.778,1357.76C385.808,1357.74 385.837,1357.73 385.867,1357.72C385.837,1357.73 385.808,1357.74 385.778,1357.76Z" style="fill:rgb(230,231,232);fill-rule:nonzero;"/>
        <path d="M396.853,1346.69C398.306,1343.64 399.12,1340.23 399.12,1336.63C399.12,1340.23 398.306,1343.64 396.853,1346.69Z" style="fill:rgb(207,209,211);fill-rule:nonzero;"/>
        <path d="M385.778,1357.76C385.634,1357.61 385.491,1357.47 385.349,1357.33C382.895,1354.84 380.818,1352.35 379.065,1349.9C370.108,1337.36 369.62,1325.65 370.478,1318.71C370.899,1319.99 371.266,1321.35 371.66,1322.17C372.701,1324.35 373.846,1326.48 374.991,1328.61C376.522,1331.45 378.083,1334.34 380.346,1336.64C382.503,1338.84 385.423,1340.48 388.486,1340.48C388.635,1340.48 388.785,1340.47 388.935,1340.46C392.746,1340.26 395.798,1337.67 399.073,1335.56C399.089,1335.92 399.12,1336.27 399.12,1336.63C399.12,1340.23 398.306,1343.64 396.853,1346.69C395.637,1349.24 393.974,1351.53 391.965,1353.47C391.193,1354.21 390.37,1354.9 389.501,1355.54C388.45,1356.3 387.332,1356.98 386.158,1357.57C386.061,1357.62 385.964,1357.67 385.867,1357.72C385.837,1357.73 385.808,1357.74 385.778,1357.76Z" style="fill:rgb(230,231,232);fill-rule:nonzero;"/>
        <path d="M201.149,1426.86L179.715,1425.2C182.758,1385.94 201.666,1348.75 231.587,1323.16L245.561,1339.49C219.943,1361.41 203.756,1393.25 201.149,1426.86Z" style="fill:rgb(230,231,232);fill-rule:nonzero;"/>
        <path d="M244.178,1340.7L229.95,1324.58C230.492,1324.1 231.037,1323.63 231.586,1323.16L245.562,1339.49C245.098,1339.89 244.637,1340.29 244.178,1340.7ZM237.512,1347.03L222.123,1332.02C222.628,1331.5 223.137,1330.99 223.65,1330.48L238.801,1345.73C238.368,1346.16 237.939,1346.59 237.512,1347.03ZM231.317,1353.85L214.878,1340C215.343,1339.45 215.813,1338.9 216.286,1338.35L232.51,1352.46C232.109,1352.92 231.711,1353.39 231.317,1353.85ZM225.629,1361.11L208.231,1348.48C208.656,1347.89 209.085,1347.31 209.518,1346.74L226.718,1359.64C226.351,1360.12 225.988,1360.62 225.629,1361.11ZM220.461,1368.77L202.216,1357.4C202.597,1356.78 202.982,1356.18 203.373,1355.57L221.446,1367.22C221.114,1367.73 220.786,1368.25 220.461,1368.77ZM215.84,1376.78L196.85,1366.71C197.186,1366.07 197.527,1365.44 197.871,1364.81L216.718,1375.16C216.422,1375.7 216.129,1376.24 215.84,1376.78ZM211.797,1385.1L192.147,1376.37C192.438,1375.72 192.733,1375.07 193.032,1374.42L212.56,1383.41C212.303,1383.97 212.048,1384.53 211.797,1385.1ZM208.353,1393.67L188.134,1386.36C188.378,1385.68 188.627,1385.01 188.881,1384.34L208.994,1391.93C208.776,1392.51 208.563,1393.09 208.353,1393.67ZM205.525,1402.45L184.837,1396.6C185.033,1395.91 185.234,1395.22 185.439,1394.53L206.04,1400.68C205.864,1401.27 205.693,1401.86 205.525,1402.45ZM203.338,1411.41L182.282,1407.07C182.427,1406.37 182.576,1405.67 182.732,1404.96L203.724,1409.61C203.591,1410.21 203.462,1410.81 203.338,1411.41ZM201.812,1420.49L180.493,1417.71C180.586,1417 180.684,1416.29 180.788,1415.57L202.063,1418.67C201.975,1419.28 201.891,1419.88 201.812,1420.49Z" style="fill:rgb(171,177,181);fill-rule:nonzero;"/>
        <path d="M221.804,1444.9C220.697,1444.9 219.603,1444.41 218.872,1443.47C218.544,1443.04 218.165,1442.62 217.837,1442.25C214.238,1438.26 210.149,1434.74 205.671,1431.78C205.416,1431.75 205.161,1431.69 204.909,1431.61C202.974,1430.94 201.947,1428.83 202.616,1426.89C203.011,1425.75 203.893,1424.86 205.035,1424.47C206.256,1424.04 207.624,1424.22 208.787,1424.97C214.168,1428.4 219.065,1432.54 223.342,1437.28C223.76,1437.75 224.253,1438.3 224.731,1438.92C225.986,1440.54 225.692,1442.87 224.074,1444.12C223.398,1444.65 222.598,1444.9 221.804,1444.9Z" style="fill:rgb(230,231,232);fill-rule:nonzero;"/>
        <path d="M207.556,1433.08C207.133,1432.78 206.706,1432.48 206.276,1432.19L210.442,1426.05C210.921,1426.38 211.396,1426.71 211.867,1427.05L207.556,1433.08ZM213.602,1437.98C213.218,1437.63 212.83,1437.28 212.437,1436.94L217.322,1431.36C217.757,1431.74 218.187,1432.13 218.613,1432.52L213.602,1437.98ZM218.873,1443.47C218.589,1443.1 218.286,1442.75 217.977,1442.41L223.501,1437.46C224.003,1438.02 224.382,1438.47 224.73,1438.92L218.873,1443.47Z" style="fill:rgb(171,177,181);fill-rule:nonzero;"/>
        <path d="M185.549,1465.21C185.385,1465.21 185.219,1465.2 185.051,1465.18C183.022,1464.91 181.598,1463.04 181.87,1461.01C183.062,1452.15 185.069,1443.34 187.838,1434.83C188.472,1432.89 190.564,1431.82 192.511,1432.45C194.458,1433.09 195.523,1435.18 194.889,1437.13C192.258,1445.21 190.351,1453.58 189.219,1462C188.969,1463.86 187.377,1465.21 185.549,1465.21Z" style="fill:rgb(230,231,232);fill-rule:nonzero;"/>
        <path d="M194.443,1438.52L187.369,1436.3C187.523,1435.81 187.679,1435.32 187.838,1434.83L194.889,1437.13C194.738,1437.59 194.589,1438.06 194.443,1438.52ZM192.257,1446.24L185.068,1444.43C185.206,1443.88 185.347,1443.34 185.491,1442.79L192.659,1444.69C192.523,1445.21 192.388,1445.72 192.257,1446.24ZM190.514,1454.08L183.233,1452.67C183.34,1452.12 183.45,1451.57 183.563,1451.02L190.827,1452.5C190.72,1453.03 190.615,1453.55 190.514,1454.08ZM189.219,1462L181.87,1461.01C181.945,1460.46 182.023,1459.9 182.105,1459.34L189.442,1460.41C189.365,1460.94 189.291,1461.47 189.219,1462Z" style="fill:rgb(171,177,181);fill-rule:nonzero;"/>
        <path d="M173.543,1458.67C173.114,1458.67 172.679,1458.6 172.253,1458.44C170.333,1457.73 169.355,1455.59 170.067,1453.68C173.375,1444.76 178.082,1436.49 184.057,1429.1C185.344,1427.51 187.678,1427.26 189.271,1428.55C190.863,1429.83 191.111,1432.17 189.824,1433.76C184.355,1440.53 180.047,1448.1 177.019,1456.25C176.465,1457.75 175.049,1458.67 173.543,1458.67Z" style="fill:rgb(230,231,232);fill-rule:nonzero;"/>
        <path d="M188.362,1435.63L182.457,1431.14C182.804,1430.68 183.156,1430.23 183.513,1429.78L189.326,1434.38C189,1434.8 188.679,1435.21 188.362,1435.63ZM183.912,1442.12L177.597,1438.24C177.897,1437.75 178.203,1437.26 178.513,1436.78L184.75,1440.79C184.466,1441.23 184.187,1441.67 183.912,1442.12ZM180.119,1449.02L173.453,1445.77C173.704,1445.26 173.961,1444.74 174.223,1444.23L180.823,1447.61C180.583,1448.08 180.349,1448.55 180.119,1449.02ZM177.018,1456.26L170.068,1453.67C170.267,1453.14 170.472,1452.6 170.682,1452.07L177.582,1454.78C177.39,1455.27 177.202,1455.76 177.018,1456.26Z" style="fill:rgb(171,177,181);fill-rule:nonzero;"/>
        <path d="M199.356,1464.5C199.231,1464.5 199.106,1464.49 198.979,1464.48C196.942,1464.27 195.457,1462.45 195.663,1460.42C196.65,1450.65 195.986,1440.85 193.687,1431.31C193.208,1429.32 194.433,1427.32 196.424,1426.84C198.414,1426.35 200.417,1427.58 200.896,1429.57C203.39,1439.93 204.112,1450.56 203.041,1461.16C202.847,1463.07 201.236,1464.5 199.356,1464.5Z" style="fill:rgb(230,231,232);fill-rule:nonzero;"/>
        <path d="M194.043,1432.85C193.929,1432.33 193.81,1431.82 193.687,1431.31L200.896,1429.57C201.03,1430.13 201.159,1430.69 201.283,1431.25L194.043,1432.85ZM195.398,1440.63C195.331,1440.11 195.26,1439.58 195.183,1439.06L202.521,1437.99C202.603,1438.56 202.681,1439.12 202.753,1439.69L195.398,1440.63ZM196.044,1448.5C196.024,1447.98 196,1447.45 195.971,1446.92L203.375,1446.52C203.407,1447.09 203.433,1447.66 203.454,1448.23L196.044,1448.5ZM203.378,1456.8L195.975,1456.4C196.003,1455.88 196.027,1455.35 196.046,1454.82L203.456,1455.09C203.435,1455.66 203.409,1456.23 203.378,1456.8Z" style="fill:rgb(171,177,181);fill-rule:nonzero;"/>
        <path d="M211.398,1426.05C211.17,1417.86 202.471,1411.46 191.967,1411.75C181.463,1412.04 173.133,1418.92 173.36,1427.1C173.588,1435.29 182.288,1441.69 192.792,1441.4C203.295,1441.11 211.626,1434.23 211.398,1426.05Z" style="fill:white;fill-rule:nonzero;"/>
        <path d="M173.376,1427.46C173.376,1427.46 173.375,1427.46 173.375,1427.45C173.375,1427.46 173.375,1427.46 173.376,1427.46ZM173.371,1427.37C173.371,1427.37 173.371,1427.36 173.37,1427.36C173.371,1427.36 173.371,1427.37 173.371,1427.37ZM173.369,1427.33C173.369,1427.32 173.368,1427.32 173.368,1427.31C173.368,1427.32 173.369,1427.32 173.369,1427.33ZM173.367,1427.28L173.366,1427.27L173.367,1427.28ZM173.365,1427.24C173.365,1427.23 173.365,1427.23 173.364,1427.22C173.365,1427.23 173.365,1427.23 173.365,1427.24ZM173.363,1427.19L173.363,1427.18L173.363,1427.19ZM173.362,1427.15C173.361,1427.13 173.361,1427.12 173.36,1427.1C173.357,1426.99 173.356,1426.88 173.356,1426.77C173.356,1426.88 173.357,1426.99 173.36,1427.1C173.361,1427.12 173.361,1427.13 173.362,1427.15Z" style="fill:rgb(12,92,197);fill-rule:nonzero;"/>
        <path d="M193.993,1411.78L193.991,1411.78L193.993,1411.78ZM193.819,1411.77L193.812,1411.77L193.819,1411.77ZM193.644,1411.76L193.632,1411.76L193.644,1411.76ZM193.468,1411.76L193.454,1411.76L193.468,1411.76ZM191.967,1411.75C192.198,1411.75 192.428,1411.74 192.657,1411.74L192.661,1411.74L192.657,1411.74C192.428,1411.74 192.198,1411.75 191.967,1411.75ZM193.291,1411.75L193.275,1411.75L193.291,1411.75ZM193.115,1411.75L193.095,1411.75L193.115,1411.75ZM193.017,1411.74L193.015,1411.74L193.017,1411.74ZM192.936,1411.74L192.915,1411.74L192.936,1411.74ZM192.759,1411.74L192.735,1411.74L192.759,1411.74Z" style="fill:rgb(207,209,211);fill-rule:nonzero;"/>
        <path d="M178.395,1436.78C175.468,1434.34 173.6,1431.1 173.378,1427.5C173.377,1427.48 173.376,1427.47 173.376,1427.46C173.375,1427.46 173.375,1427.46 173.375,1427.45C173.375,1427.44 173.374,1427.43 173.373,1427.41C173.372,1427.4 173.372,1427.38 173.371,1427.37C173.371,1427.37 173.371,1427.36 173.37,1427.36C173.37,1427.35 173.369,1427.34 173.369,1427.33C173.369,1427.32 173.368,1427.32 173.368,1427.31C173.368,1427.3 173.367,1427.29 173.367,1427.28L173.366,1427.27C173.366,1427.26 173.365,1427.25 173.365,1427.24C173.365,1427.23 173.365,1427.23 173.364,1427.22C173.364,1427.21 173.364,1427.2 173.363,1427.19L173.363,1427.18C173.362,1427.17 173.362,1427.16 173.362,1427.15C173.361,1427.13 173.361,1427.12 173.36,1427.1C173.357,1426.99 173.356,1426.88 173.356,1426.77C173.361,1418.73 181.607,1412.04 191.967,1411.75C192.198,1411.75 192.428,1411.74 192.657,1411.74L193.017,1411.74C193.043,1411.75 193.069,1411.75 193.095,1411.75L193.291,1411.75C193.345,1411.75 193.399,1411.75 193.454,1411.76L193.644,1411.76C193.7,1411.76 193.756,1411.77 193.812,1411.77L193.819,1411.77C193.876,1411.77 193.934,1411.78 193.991,1411.78L193.993,1411.78C201.076,1412.17 207.087,1415.6 209.822,1420.46C206.396,1417.61 201.52,1415.83 196.115,1415.83C195.886,1415.83 195.656,1415.84 195.425,1415.84C184.921,1416.14 176.591,1423.01 176.819,1431.2C176.874,1433.19 177.434,1435.07 178.395,1436.78Z" style="fill:rgb(230,231,232);fill-rule:nonzero;"/>
        <path d="M225.361,1336.74C225.361,1345.91 230.635,1353.85 238.322,1357.68C238.449,1357.75 238.575,1357.81 238.702,1357.87C241.344,1355.23 243.561,1352.61 245.415,1350.01C257.26,1333.42 254.297,1318.29 252.994,1313.73C252.713,1313.68 252.433,1313.63 252.148,1313.6C251.039,1313.43 249.903,1313.35 248.75,1313.35C241.525,1313.35 235.069,1316.62 230.776,1321.77C227.396,1325.82 225.361,1331.04 225.361,1336.74Z" style="fill:white;fill-rule:nonzero;"/>
        <path d="M238.835,1357.74C241.418,1355.15 243.592,1352.56 245.415,1350.01C245.436,1349.98 245.457,1349.95 245.477,1349.92C245.457,1349.95 245.436,1349.98 245.415,1350.01C243.592,1352.56 241.418,1355.15 238.835,1357.74Z" style="fill:rgb(230,231,232);fill-rule:nonzero;"/>
        <path d="M238.322,1357.68C237.092,1357.07 235.923,1356.35 234.829,1355.54C235.924,1356.35 237.092,1357.07 238.322,1357.68Z" style="fill:rgb(41,122,209);fill-rule:nonzero;"/>
        <path d="M232.402,1353.47L232.401,1353.47C232.264,1353.33 232.127,1353.2 231.993,1353.06C232.127,1353.2 232.264,1353.33 232.402,1353.47Z" style="fill:rgb(12,92,197);fill-rule:nonzero;"/>
        <path d="M234.829,1355.54C233.973,1354.9 233.162,1354.21 232.401,1353.47L232.402,1353.47C233.162,1354.21 233.973,1354.9 234.829,1355.54Z" style="fill:rgb(12,92,197);fill-rule:nonzero;"/>
        <path d="M229.191,1349.57L229.19,1349.57C226.768,1345.89 225.36,1341.48 225.36,1336.74C225.36,1336.71 225.36,1336.67 225.361,1336.64L225.361,1336.74C225.361,1341.48 226.769,1345.89 229.191,1349.57Z" style="fill:rgb(207,209,211);fill-rule:nonzero;"/>
        <path d="M231.993,1353.06C230.952,1351.99 230.013,1350.82 229.19,1349.57L229.191,1349.57C230.013,1350.82 230.952,1351.99 231.993,1353.06Z" style="fill:rgb(154,160,166);fill-rule:nonzero;"/>
        <path d="M245.499,1349.89C245.512,1349.87 245.525,1349.86 245.539,1349.84C245.525,1349.86 245.512,1349.87 245.499,1349.89ZM245.563,1349.8C245.579,1349.78 245.595,1349.76 245.61,1349.74C245.594,1349.76 245.579,1349.78 245.563,1349.8ZM245.628,1349.71C245.645,1349.69 245.663,1349.66 245.68,1349.64C245.663,1349.66 245.645,1349.69 245.628,1349.71ZM245.71,1349.59C245.72,1349.58 245.731,1349.56 245.742,1349.55C245.731,1349.56 245.72,1349.58 245.71,1349.59ZM245.77,1349.51C245.781,1349.49 245.793,1349.47 245.803,1349.46C245.792,1349.48 245.781,1349.49 245.77,1349.51ZM245.851,1349.39C245.861,1349.38 245.872,1349.36 245.882,1349.35C245.872,1349.36 245.861,1349.38 245.851,1349.39ZM245.918,1349.29C245.925,1349.28 245.932,1349.27 245.939,1349.26C245.932,1349.27 245.924,1349.28 245.918,1349.29ZM245.977,1349.21C245.983,1349.2 245.987,1349.19 245.993,1349.19C245.988,1349.19 245.983,1349.2 245.977,1349.21ZM246.123,1349C246.127,1348.99 246.132,1348.98 246.137,1348.97C246.132,1348.98 246.128,1348.99 246.123,1349ZM246.177,1348.92C246.182,1348.91 246.186,1348.9 246.191,1348.89C246.186,1348.9 246.182,1348.91 246.177,1348.92ZM246.321,1348.7C246.325,1348.7 246.329,1348.69 246.333,1348.68C246.329,1348.69 246.325,1348.7 246.321,1348.7ZM246.376,1348.62C246.378,1348.62 246.381,1348.61 246.383,1348.61C246.381,1348.61 246.378,1348.62 246.376,1348.62ZM246.522,1348.4L246.525,1348.4L246.522,1348.4ZM250.686,1340.75L250.687,1340.75L250.686,1340.75Z" style="fill:rgb(230,231,232);fill-rule:nonzero;"/>
        <path d="M238.702,1357.87C238.575,1357.81 238.449,1357.75 238.322,1357.68C237.092,1357.07 235.924,1356.35 234.829,1355.54C233.973,1354.9 233.162,1354.21 232.402,1353.47C232.264,1353.33 232.127,1353.2 231.993,1353.06C230.952,1351.99 230.013,1350.82 229.191,1349.57C226.769,1345.89 225.361,1341.48 225.361,1336.74L225.361,1336.64C225.366,1336.32 225.393,1336 225.408,1335.67C228.682,1337.78 231.735,1340.37 235.545,1340.57C235.694,1340.58 235.844,1340.59 235.993,1340.59C239.057,1340.59 241.977,1338.95 244.134,1336.75C246.397,1334.45 247.959,1331.56 249.489,1328.72C250.634,1326.59 251.78,1324.46 252.82,1322.28C253.214,1321.46 253.581,1320.1 254.003,1318.82C254.644,1324.01 254.533,1331.87 250.687,1340.75L250.686,1340.75C249.612,1343.23 248.246,1345.79 246.525,1348.4L246.522,1348.4C246.476,1348.47 246.429,1348.54 246.383,1348.61C246.381,1348.61 246.378,1348.62 246.376,1348.62C246.362,1348.64 246.348,1348.66 246.333,1348.68C246.329,1348.69 246.325,1348.7 246.321,1348.7C246.277,1348.77 246.235,1348.83 246.191,1348.89C246.186,1348.9 246.182,1348.91 246.177,1348.92C246.164,1348.93 246.15,1348.95 246.137,1348.97C246.132,1348.98 246.127,1348.99 246.123,1349C246.08,1349.06 246.036,1349.12 245.993,1349.19C245.987,1349.19 245.983,1349.2 245.977,1349.21C245.964,1349.23 245.952,1349.24 245.939,1349.26C245.932,1349.27 245.925,1349.28 245.918,1349.29C245.905,1349.31 245.894,1349.33 245.882,1349.35C245.872,1349.36 245.861,1349.38 245.851,1349.39C245.835,1349.41 245.819,1349.44 245.803,1349.46C245.793,1349.47 245.781,1349.49 245.77,1349.51C245.761,1349.52 245.751,1349.53 245.742,1349.55C245.731,1349.56 245.72,1349.58 245.71,1349.59C245.7,1349.61 245.69,1349.62 245.68,1349.64C245.663,1349.66 245.645,1349.69 245.628,1349.71C245.622,1349.72 245.616,1349.73 245.61,1349.74C245.595,1349.76 245.579,1349.78 245.563,1349.8C245.555,1349.81 245.547,1349.82 245.539,1349.84C245.525,1349.86 245.512,1349.87 245.499,1349.89C245.491,1349.9 245.484,1349.91 245.477,1349.92C245.457,1349.95 245.436,1349.98 245.415,1350.01C243.592,1352.56 241.418,1355.15 238.835,1357.74C238.791,1357.78 238.746,1357.82 238.702,1357.87Z" style="fill:rgb(230,231,232);fill-rule:nonzero;"/>
        <path d="M334.689,1391.71L290.011,1391.71C284.384,1391.71 279.805,1387.13 279.805,1381.51L279.805,1336.83C279.805,1331.2 284.384,1326.62 290.011,1326.62L334.689,1326.62C340.316,1326.62 344.895,1331.2 344.895,1336.83L344.895,1381.51C344.895,1387.13 340.316,1391.71 334.689,1391.71ZM290.011,1328.62C285.486,1328.62 281.805,1332.3 281.805,1336.83L281.805,1381.51C281.805,1386.03 285.486,1389.71 290.011,1389.71L334.689,1389.71C339.214,1389.71 342.895,1386.03 342.895,1381.51L342.895,1336.83C342.895,1332.3 339.214,1328.62 334.689,1328.62L290.011,1328.62Z" style="fill:rgb(230,231,232);fill-rule:nonzero;"/>
        <path d="M335.555,1338.27L323.338,1338.27C321.764,1338.27 320.487,1337 320.487,1335.42C320.487,1333.85 321.764,1332.57 323.338,1332.57L335.555,1332.57C337.129,1332.57 338.405,1333.85 338.405,1335.42C338.405,1337 337.129,1338.27 335.555,1338.27Z" style="fill:rgb(25,48,59);fill-rule:nonzero;"/>
        <path d="M336.376,1335.52C336.376,1336.23 335.797,1336.81 335.084,1336.81C334.37,1336.81 333.791,1336.23 333.791,1335.52C333.791,1334.81 334.37,1334.23 335.084,1334.23C335.797,1334.23 336.376,1334.81 336.376,1335.52Z" style="fill:rgb(253,188,0);fill-rule:nonzero;"/>
        <path d="M332.348,1335.52C332.348,1336.23 331.77,1336.81 331.056,1336.81C330.342,1336.81 329.764,1336.23 329.764,1335.52C329.764,1334.81 330.342,1334.23 331.056,1334.23C331.77,1334.23 332.348,1334.81 332.348,1335.52Z" style="fill:rgb(0,174,231);fill-rule:nonzero;"/>
        <path d="M526.357,1236.68L445.339,1236.68C442.895,1236.68 440.913,1234.7 440.913,1232.25L440.913,1168.41C440.913,1165.97 442.895,1163.99 445.339,1163.99L526.357,1163.99C528.801,1163.99 530.782,1165.97 530.782,1168.41L530.782,1232.25C530.782,1234.7 528.801,1236.68 526.357,1236.68Z" style="fill:rgb(250,136,0);fill-rule:nonzero;"/>
        <path d="M449.724,1225.67L449.724,1258.16L487.447,1220.43L449.724,1225.67Z" style="fill:rgb(250,136,0);fill-rule:nonzero;"/>
        <path d="M491.779,1218.14L485.073,1218.14L485.073,1200.95L467.748,1200.95L467.748,1218.14L461.014,1218.14L461.014,1179.39L467.748,1179.39L467.748,1195.52L485.073,1195.52L485.073,1179.39L491.779,1179.39L491.779,1218.14Z" style="fill:white;fill-rule:nonzero;"/>
        <path d="M505.991,1218.14L499.524,1218.14L499.524,1189.35L505.991,1189.35L505.991,1218.14ZM499.125,1181.87C499.125,1180.87 499.439,1180.05 500.069,1179.39C500.699,1178.74 501.6,1178.41 502.771,1178.41C503.941,1178.41 504.847,1178.74 505.485,1179.39C506.124,1180.05 506.443,1180.87 506.443,1181.87C506.443,1182.84 506.124,1183.66 505.485,1184.3C504.847,1184.95 503.941,1185.27 502.771,1185.27C501.6,1185.27 500.699,1184.95 500.069,1184.3C499.439,1183.66 499.125,1182.84 499.125,1181.87Z" style="fill:white;fill-rule:nonzero;"/>
    </g>
</svg>
